<?xml version="1.0" standalone="no"?>
<!DOCTYPE svg PUBLIC "-//W3C//DTD SVG 20010904//EN"
 "http://www.w3.org/TR/2001/REC-SVG-20010904/DTD/svg10.dtd">
<svg version="1.0" xmlns="http://www.w3.org/2000/svg"
 width="1024.000000pt" height="1024.000000pt" viewBox="0 0 1024.000000 1024.000000"
 preserveAspectRatio="xMidYMid meet">

<g transform="translate(0.000000,1024.000000) scale(0.100000,-0.100000)"
fill="#000000" stroke="none">
<path d="M4930 9693 c-367 -25 -562 -54 -839 -123 -672 -169 -1300 -514 -1808
-994 -260 -245 -579 -659 -759 -986 -326 -592 -506 -1234 -539 -1923 -6 -137
9 -464 30 -652 55 -484 225 -1002 468 -1425 147 -258 379 -563 564 -742 l48
-47 50 16 c28 9 52 18 54 19 2 2 -36 47 -85 99 -335 361 -543 671 -707 1057
-141 330 -222 635 -287 1078 -18 118 -24 619 -11 783 29 347 109 726 218 1032
180 505 423 929 765 1336 553 657 1456 1166 2315 1305 264 42 655 69 850 59
407 -23 668 -59 928 -131 858 -236 1605 -735 2122 -1414 483 -636 768 -1386
839 -2205 39 -445 -16 -985 -143 -1405 -44 -147 -154 -440 -205 -550 -170
-361 -474 -792 -700 -993 l-60 -54 69 -17 68 -18 83 89 c422 448 726 1012 882
1633 89 354 121 607 122 975 1 300 -13 474 -57 740 -189 1127 -837 2141 -1765
2762 -309 207 -713 405 -1040 509 -395 126 -855 196 -1255 192 -93 -1 -190 -3
-215 -5z"/>
<path d="M4868 9341 c-82 -6 -119 -24 -75 -35 29 -7 32 -19 47 -196 11 -123
11 -125 -11 -143 -12 -9 -19 -20 -17 -23 3 -3 52 0 108 6 56 5 124 10 150 10
41 0 49 3 54 23 16 59 -5 90 -31 48 -21 -34 -149 -57 -157 -28 -3 6 -7 38 -10
70 l-6 57 43 0 c23 0 53 -7 65 -16 22 -15 22 -15 22 40 0 60 -7 67 -35 36 -23
-25 -90 -28 -99 -4 -3 9 -6 37 -6 64 0 54 8 60 92 60 39 0 50 -4 67 -27 l21
-28 -2 45 -3 45 -70 1 c-38 1 -105 -2 -147 -5z"/>
<path d="M5365 9330 c-3 -5 3 -18 15 -30 11 -11 20 -23 20 -27 0 -29 -21 -243
-26 -264 -3 -16 -14 -30 -27 -33 -21 -7 -21 -7 -2 -15 25 -10 145 -23 145 -15
0 2 -6 15 -14 27 -10 15 -12 39 -9 75 5 47 8 53 27 50 15 -2 30 -22 51 -65 39
-79 58 -99 102 -106 48 -8 59 0 35 27 -21 23 -87 145 -81 149 2 1 13 7 24 13
28 15 65 72 65 101 0 35 -29 74 -67 89 -18 8 -68 17 -110 20 -43 2 -93 7 -110
9 -18 2 -35 0 -38 -5z m200 -46 c29 -11 46 -58 34 -93 -13 -38 -35 -51 -86
-51 l-38 0 3 75 4 75 33 0 c18 0 41 -3 50 -6z"/>
<path d="M4465 9293 c-40 -6 -56 -22 -28 -29 12 -3 24 -12 26 -18 5 -12 -10
-112 -30 -210 l-9 -40 -45 70 c-82 125 -95 152 -81 174 15 24 11 25 -76 4
-101 -24 -101 -23 -57 -43 35 -16 54 -40 139 -175 54 -86 105 -156 112 -156
22 0 31 31 64 215 24 132 35 174 52 192 l21 23 -29 -1 c-16 -1 -42 -4 -59 -6z"/>
<path d="M6031 9227 c-31 -18 -50 -54 -51 -93 0 -35 35 -87 99 -149 22 -21 41
-47 41 -56 0 -48 -76 -65 -123 -29 -14 11 -32 36 -39 55 -17 49 -32 38 -36
-24 -3 -51 -3 -52 35 -67 113 -48 226 -17 246 65 9 37 -18 80 -91 148 -63 58
-66 63 -57 90 9 23 17 29 47 31 48 4 88 -30 98 -84 l7 -39 12 30 c29 71 27 80
-25 105 -57 28 -130 36 -163 17z"/>
<path d="M3875 9145 c-22 -6 -59 -18 -82 -25 -42 -13 -49 -30 -12 -30 23 0 31
-17 90 -182 l38 -106 -20 -26 c-10 -13 -16 -26 -12 -29 12 -6 163 44 163 54 0
5 -7 9 -15 9 -23 0 -48 49 -95 182 l-43 121 23 17 c31 23 14 31 -35 15z"/>
<path d="M6514 9094 c20 -29 17 -42 -43 -179 -52 -119 -65 -140 -88 -140 -42
0 -32 -13 34 -42 86 -39 113 -47 113 -35 0 5 -7 15 -15 22 -23 19 -19 36 38
175 50 123 58 136 102 150 l20 7 -20 8 c-11 5 -51 20 -89 35 l-69 26 17 -27z"/>
<path d="M3460 8994 l-55 -27 33 -9 c28 -8 38 -19 63 -75 54 -120 58 -118
-103 -41 l-142 69 -48 -22 c-53 -25 -60 -36 -25 -41 18 -2 31 -25 73 -123 78
-180 82 -195 60 -210 -10 -8 -13 -16 -7 -19 6 -4 40 9 77 27 l68 34 -37 7
c-26 5 -41 16 -56 39 -23 38 -94 197 -89 202 2 2 53 -21 113 -51 138 -67 243
-109 252 -101 3 4 -1 24 -10 44 -8 21 -38 92 -65 157 -46 111 -54 146 -31 146
5 0 9 5 9 10 0 16 -21 12 -80 -16z"/>
<path d="M6841 8924 c-34 -57 -24 -86 14 -44 10 11 27 20 38 20 24 0 77 -31
77 -45 -1 -25 -129 -251 -149 -261 -36 -18 -35 -21 33 -59 70 -39 116 -46 82
-13 -12 12 -15 25 -11 40 8 26 113 228 125 242 12 12 57 -1 80 -24 11 -11 20
-33 20 -50 0 -41 11 -38 38 12 l23 42 -21 16 c-32 24 -304 160 -320 160 -4 0
-17 -16 -29 -36z"/>
<path d="M2897 8705 c-16 -8 -43 -27 -60 -41 l-32 -27 37 7 c36 7 36 6 74 -56
21 -35 41 -65 44 -68 18 -14 60 -100 60 -123 0 -33 -43 -84 -79 -92 -45 -10
-75 9 -123 77 -73 102 -100 155 -93 178 9 30 -9 25 -75 -20 -71 -48 -82 -62
-42 -54 29 6 33 1 108 -106 80 -116 109 -140 171 -140 41 0 128 54 153 95 36
58 25 103 -54 222 -66 102 -76 129 -54 151 16 16 -1 15 -35 -3z"/>
<path d="M7394 8603 c0 -43 -10 -82 -38 -153 -45 -111 -60 -132 -91 -124 -47
12 -32 -15 31 -55 94 -61 98 -61 90 -19 -4 25 -1 48 13 78 20 45 31 51 204
117 37 14 67 29 67 34 0 11 -41 39 -57 39 -7 0 -13 -6 -13 -13 0 -7 -26 -26
-57 -41 -66 -33 -113 -48 -113 -37 0 4 18 43 40 87 22 43 40 80 40 80 0 5 -98
64 -106 64 -5 0 -10 -26 -10 -57z"/>
<path d="M4215 8109 c-228 -28 -429 -167 -526 -363 -131 -268 -74 -619 132
-810 75 -70 213 -138 324 -161 100 -21 275 -21 375 0 157 33 329 143 411 262
133 193 162 435 79 656 -73 193 -259 352 -472 402 -84 20 -225 26 -323 14z
m282 -95 c111 -54 206 -184 250 -344 25 -94 26 -397 0 -490 -46 -166 -125
-273 -242 -326 -46 -22 -80 -29 -147 -32 -160 -8 -274 48 -353 173 -81 129
-110 263 -102 475 8 230 54 359 166 471 87 86 154 111 283 105 70 -3 99 -9
145 -32z"/>
<path d="M5610 8109 c-289 -43 -438 -297 -312 -533 42 -78 120 -138 284 -221
226 -113 285 -159 314 -247 18 -55 13 -111 -17 -174 -64 -137 -295 -154 -433
-32 -55 48 -113 131 -147 210 -16 39 -30 58 -41 58 -22 0 -22 -7 -7 -190 l12
-136 122 -38 c175 -53 275 -64 394 -42 97 18 147 38 218 89 131 93 179 297
106 446 -46 95 -103 139 -325 251 -215 110 -256 138 -287 204 -70 143 37 296
205 296 79 0 116 -16 185 -78 37 -33 61 -68 95 -138 67 -139 74 -131 74 81 0
161 -1 175 -18 175 -10 0 -27 -6 -38 -14 -18 -13 -27 -12 -78 5 -53 17 -199
41 -236 38 -8 -1 -40 -5 -70 -10z"/>
<path d="M2897 8083 c-4 -3 -7 -15 -7 -25 0 -14 8 -18 38 -18 51 0 102 -28
127 -70 19 -34 20 -53 23 -555 3 -543 -1 -630 -39 -742 -25 -77 -58 -107 -108
-99 -39 6 -48 16 -56 68 -14 83 -117 118 -175 60 -84 -85 -19 -208 119 -226
60 -8 168 16 232 51 60 32 154 130 191 199 15 27 39 90 54 139 l28 90 6 505
c3 278 9 513 14 523 12 25 62 49 121 56 42 5 51 10 53 29 l3 22 -309 0 c-170
0 -312 -3 -315 -7z"/>
<path d="M6240 8065 c0 -22 5 -25 33 -25 55 0 106 -19 125 -48 15 -23 18 -70
23 -432 5 -329 10 -417 23 -469 41 -160 143 -262 309 -307 77 -22 263 -29 339
-15 166 33 282 148 328 327 19 70 21 119 26 444 3 201 10 382 15 402 13 50 58
86 119 94 44 6 50 9 50 30 l0 24 -225 0 -225 0 0 -24 c0 -21 6 -24 52 -29 68
-8 99 -32 120 -93 15 -43 17 -96 18 -409 0 -388 -4 -424 -54 -524 -35 -69 -67
-103 -128 -136 -48 -27 -61 -30 -148 -30 -125 1 -194 27 -266 99 -88 90 -88
88 -92 566 -2 289 0 427 8 453 9 31 20 42 53 58 23 10 61 19 85 19 38 0 42 2
42 25 l0 25 -315 0 -315 0 0 -25z"/>
<path d="M5020 6639 c-167 -50 -751 -170 -998 -205 -174 -24 -627 -72 -808
-85 l-172 -12 -7 -596 c-15 -1145 6 -1497 107 -1826 170 -553 475 -949 1021
-1328 264 -182 604 -360 884 -460 l72 -26 108 40 c425 160 898 440 1202 712
376 337 602 733 711 1247 55 260 55 259 55 1295 l0 960 -160 7 c-583 26 -1153
109 -1705 249 -107 27 -206 49 -220 48 -14 0 -54 -9 -90 -20z m366 -129 c434
-103 764 -161 1149 -199 165 -17 498 -41 560 -41 14 0 16 -87 12 -942 -3
-1026 -2 -988 -63 -1266 -124 -559 -448 -1020 -963 -1371 -168 -115 -277 -182
-411 -253 -181 -97 -511 -238 -555 -238 -35 0 -250 92 -434 185 -532 270 -935
600 -1184 969 -138 205 -268 515 -317 752 -46 223 -50 321 -50 1263 l0 889 98
7 c607 41 1166 127 1732 269 74 19 144 34 156 35 11 1 133 -26 270 -59z"/>
<path d="M5059 6456 c-9 -8 -445 -107 -619 -140 -308 -58 -718 -113 -1015
-136 -77 -6 -153 -13 -170 -16 l-30 -4 2 -755 3 -756 922 1 923 0 3 905 c1
498 -2 905 -6 905 -5 0 -11 -2 -13 -4z m-1055 -596 c30 -10 75 -30 99 -44 53
-31 89 -33 128 -6 87 63 216 89 345 69 82 -12 88 -16 85 -51 -2 -13 8 -19 38
-24 l41 -7 0 -346 0 -346 -132 4 c-165 4 -260 -11 -360 -56 l-78 -36 -67 30
c-127 57 -305 80 -450 59 l-53 -8 0 349 0 348 40 17 c22 9 40 23 40 31 0 14
24 25 85 41 38 9 185 -5 239 -24z m-442 -442 l3 -363 35 5 c19 3 103 5 185 5
131 0 159 -3 220 -24 39 -13 89 -34 113 -48 l43 -24 56 27 c121 57 273 90 362
79 20 -2 72 -7 116 -10 l80 -5 -2 361 -3 360 23 -7 c12 -4 25 -12 29 -18 4 -6
8 -178 8 -382 l0 -371 -57 9 c-32 4 -119 8 -193 9 -153 1 -251 -18 -353 -70
l-58 -30 -71 34 c-115 56 -195 69 -377 62 -86 -3 -169 -9 -184 -13 l-28 -6 1
385 c1 212 4 388 7 391 4 3 15 6 25 6 17 0 18 -20 20 -362z"/>
<path d="M3850 5180 c34 -11 60 -11 35 0 -11 5 -29 8 -40 8 -16 0 -15 -2 5 -8z"/>
<path d="M4415 5171 c-76 -23 -177 -71 -149 -71 11 0 43 11 70 25 53 27 138
53 194 58 29 3 27 4 -10 5 -25 0 -72 -7 -105 -17z"/>
<path d="M3999 5139 c46 -22 85 -38 87 -36 5 5 -148 77 -161 77 -6 -1 28 -19
74 -41z"/>
<path d="M4100 5096 c0 -2 7 -7 16 -10 8 -3 12 -2 9 4 -6 10 -25 14 -25 6z"/>
<path d="M5162 5556 c2 -498 6 -906 11 -906 4 0 420 0 925 0 l917 0 -2 292
c-2 161 -3 503 -3 759 l0 467 -97 6 c-532 37 -1033 115 -1591 247 -70 16 -135
32 -145 35 -16 5 -17 -41 -15 -900z m1476 437 c-2 -10 -18 -25 -36 -35 -46
-22 -47 -25 -30 -45 50 -58 61 -138 28 -203 -81 -158 -301 -46 -224 115 21 45
67 64 103 43 14 -9 32 -29 40 -44 12 -24 12 -31 0 -53 -19 -33 -53 -35 -57 -3
-2 15 -9 22 -20 20 -25 -5 -26 -34 -3 -57 46 -46 121 -9 121 60 0 30 -8 46
-43 83 l-42 46 -377 0 c-324 0 -382 -2 -410 -16 -43 -21 -69 -56 -75 -104 -5
-34 -1 -43 25 -70 36 -36 50 -37 86 -9 20 15 26 29 24 48 -4 33 -30 34 -38 1
-9 -37 -36 -37 -55 -1 -14 27 -14 34 -1 59 14 27 52 52 80 52 22 0 67 -57 76
-96 11 -48 -6 -90 -49 -127 -74 -62 -183 -9 -206 101 -10 49 2 95 35 137 36
46 37 55 6 55 -35 0 -68 35 -49 53 3 4 251 7 550 7 513 0 544 -1 541 -17z
m-281 -131 c-9 -10 -20 -36 -25 -58 l-8 -39 -236 -3 -236 -2 -7 32 c-4 18 -16
45 -27 61 l-19 27 287 0 c276 0 286 -1 271 -18z m-27 -147 c0 -8 16 -32 35
-54 l35 -38 0 -317 0 -316 -45 0 -45 0 0 292 c0 257 -2 294 -17 310 -43 48
-119 -7 -98 -73 11 -33 35 -23 35 14 0 40 8 51 27 36 10 -9 13 -70 13 -298 l0
-286 -50 3 -50 4 0 286 c0 280 0 286 -22 309 -16 17 -32 23 -66 23 -84 0 -82
8 -82 -327 l0 -293 -54 0 -54 0 -1 282 c0 272 4 318 30 302 5 -3 9 -14 9 -25
0 -25 16 -24 23 2 6 24 -24 59 -51 59 -40 0 -42 -13 -42 -322 l0 -298 -45 0
-45 0 0 319 0 319 30 23 c16 13 35 36 41 52 l11 27 239 0 c206 0 239 -2 239
-15z m-212 -147 c9 -9 12 -88 12 -295 l0 -283 -45 0 -45 0 0 288 c0 159 3 292
7 295 11 11 58 8 71 -5z m350 -623 c12 -3 22 -10 22 -15 0 -6 -138 -10 -380
-10 -325 0 -380 2 -380 15 0 10 15 15 58 17 90 5 654 -1 680 -7z m50 -95 l3
-30 -430 0 -431 0 0 28 c0 16 2 31 4 33 2 2 195 3 428 2 l423 -2 3 -31z"/>
<path d="M5837 5663 c-20 -20 15 -23 248 -23 220 0 255 2 255 15 0 13 -34 15
-248 15 -137 0 -252 -3 -255 -7z"/>
<path d="M3225 4543 c2 -16 7 -73 10 -128 12 -218 94 -512 208 -748 68 -142
179 -314 282 -437 235 -281 672 -600 1095 -798 101 -47 249 -112 256 -112 2 0
4 506 4 1125 l0 1125 -930 0 -929 0 4 -27z m1053 -103 c79 -57 120 -173 108
-302 -4 -44 -2 -68 4 -68 14 0 49 58 57 93 8 39 23 30 56 -33 23 -45 28 -65
24 -105 -8 -101 -79 -197 -112 -151 -9 12 -11 26 -4 49 5 18 9 40 9 50 0 17
-4 16 -31 -7 -17 -14 -41 -26 -53 -26 -44 0 -96 84 -96 156 l0 37 -60 -78
c-54 -70 -60 -82 -60 -126 0 -55 -10 -65 -49 -49 -36 15 -66 56 -81 110 -15
55 3 114 65 211 25 38 45 77 45 86 0 13 3 14 12 5 8 -8 9 -29 1 -79 -6 -37 -9
-69 -8 -71 5 -6 88 130 101 166 7 20 13 65 14 100 0 34 4 62 8 62 5 0 27 -13
50 -30z m257 -675 l0 -40 -280 0 -280 0 -3 28 c-7 57 -5 58 292 55 l271 -3 0
-40z m-75 -106 c0 -12 -7 -36 -16 -55 l-16 -34 -174 0 -173 0 -16 30 c-8 16
-15 40 -15 55 l0 25 205 0 c202 0 205 0 205 -21z m-74 -171 c-21 -125 -56
-377 -56 -400 0 -28 0 -28 -69 -28 l-70 0 -6 58 c-4 31 -20 134 -36 227 -16
94 -29 173 -29 178 0 4 61 7 136 7 l137 0 -7 -42z m-60 -495 c-15 -88 -49
-125 -91 -103 -29 16 -45 51 -45 100 l0 40 71 0 71 0 -6 -37z"/>
<path d="M5160 3445 c0 -619 3 -1125 6 -1125 3 0 85 36 183 80 389 176 704
374 961 604 401 359 660 904 697 1467 l6 99 -926 0 -927 0 0 -1125z m958 880
c175 -41 335 -172 413 -338 160 -342 -40 -763 -406 -857 -307 -78 -622 102
-720 412 -52 165 -41 310 34 463 118 240 419 381 679 320z"/>
<path d="M5913 4274 c-51 -25 -192 -211 -178 -234 5 -9 117 -36 183 -44 l42
-6 0 150 c0 82 -3 150 -7 150 -5 0 -22 -7 -40 -16z"/>
<path d="M6009 4286 c-2 -2 -3 -70 -1 -150 l3 -147 37 6 c67 11 172 37 176 44
9 15 -70 138 -124 193 -49 51 -77 68 -91 54z"/>
<path d="M6158 4235 c22 -25 55 -75 74 -110 18 -37 40 -65 48 -65 8 0 37 13
63 29 l48 28 -35 31 c-50 44 -206 132 -233 132 -3 0 13 -20 35 -45z"/>
<path d="M5744 4235 c-73 -37 -164 -100 -164 -113 0 -8 110 -65 115 -60 1 2
15 28 30 58 15 30 45 76 67 103 21 26 35 47 30 47 -5 0 -40 -16 -78 -35z"/>
<path d="M5502 4028 c-17 -29 -41 -80 -52 -113 -21 -60 -32 -168 -17 -172 4
-2 47 -3 96 -3 l89 0 7 64 c3 36 13 89 22 118 28 100 30 91 -35 126 -33 18
-64 32 -69 32 -5 0 -23 -24 -41 -52z"/>
<path d="M6349 4042 l-66 -34 18 -48 c10 -26 23 -86 30 -134 l12 -86 52 0 c29
0 73 -3 99 -6 l46 -7 0 40 c0 82 -64 257 -107 295 -16 13 -24 11 -84 -20z"/>
<path d="M5692 3913 c-23 -92 -31 -173 -19 -173 4 0 70 0 147 0 l140 0 0 105
0 105 -42 1 c-39 0 -150 25 -189 43 -14 6 -20 -7 -37 -81z"/>
<path d="M6175 3975 c-27 -8 -75 -17 -105 -21 -30 -4 -57 -10 -60 -14 -3 -5
-4 -51 -2 -104 l3 -96 141 0 141 0 -5 63 c-7 78 -37 187 -52 186 -6 0 -33 -7
-61 -14z"/>
<path d="M5425 3643 c4 -26 17 -75 30 -108 22 -59 81 -165 92 -165 3 0 31 14
62 32 31 17 57 32 58 32 1 1 -7 31 -16 66 -10 36 -22 94 -26 128 l-7 62 -100
0 -100 0 7 -47z"/>
<path d="M5672 3623 c4 -37 15 -91 23 -121 13 -44 19 -52 33 -47 41 16 168 45
199 45 l33 0 0 95 0 95 -148 0 -148 0 8 -67z"/>
<path d="M6008 3595 l3 -95 32 0 c18 0 70 -9 117 -19 47 -11 86 -18 87 -17 8
8 43 165 43 193 l0 33 -142 0 -143 0 3 -95z"/>
<path d="M6335 3653 c-4 -34 -26 -133 -41 -189 -5 -18 4 -26 62 -53 63 -29 67
-30 81 -14 41 51 103 213 103 271 0 21 -3 22 -100 22 l-99 0 -6 -37z"/>
<path d="M5832 3440 c-45 -11 -87 -22 -92 -25 -15 -9 35 -111 81 -166 44 -53
81 -82 117 -93 l22 -7 0 155 c0 181 13 167 -128 136z"/>
<path d="M6008 3311 c-3 -144 -2 -151 17 -151 28 0 135 115 174 188 18 35 31
66 28 68 -8 8 -107 32 -164 39 l-52 7 -3 -151z"/>
<path d="M6239 3333 c-18 -36 -53 -88 -77 -114 -24 -27 -41 -49 -37 -49 4 0
41 17 82 38 65 32 190 128 180 138 -1 2 -28 14 -59 28 l-56 25 -33 -66z"/>
<path d="M5632 3364 c-29 -14 -52 -27 -52 -29 0 -25 221 -167 236 -152 3 3 -7
18 -21 33 -28 30 -95 139 -95 154 0 19 -19 18 -68 -6z"/>
<path d="M9033 5385 c0 -22 2 -30 4 -17 2 12 2 30 0 40 -3 9 -5 -1 -4 -23z"/>
<path d="M1901 5374 c0 -11 3 -14 6 -6 3 7 2 16 -1 19 -3 4 -6 -2 -5 -13z"/>
<path d="M2508 2883 c6 -2 18 -2 25 0 6 3 1 5 -13 5 -14 0 -19 -2 -12 -5z"/>
<path d="M2360 2811 c-47 -10 -137 -35 -200 -55 -354 -111 -465 -136 -611
-136 -49 0 -89 -4 -89 -8 0 -18 58 -89 118 -144 34 -31 95 -75 137 -99 41 -24
75 -46 75 -49 0 -4 -57 -91 -126 -194 -69 -103 -124 -190 -122 -192 7 -6 180
16 283 37 55 11 173 41 263 66 l162 46 0 236 c0 216 2 239 20 268 33 55 68 66
235 74 188 9 245 26 245 74 0 76 -208 117 -390 76z"/>
<path d="M7599 2816 c-60 -13 -106 -38 -116 -62 -8 -22 32 -59 80 -74 23 -7
105 -15 183 -19 120 -6 146 -11 176 -29 64 -39 68 -61 68 -327 0 -151 4 -234
10 -230 5 3 89 -17 187 -44 160 -46 312 -77 461 -95 l52 -7 -76 118 c-131 202
-166 256 -171 269 -3 8 16 23 49 40 114 57 202 131 271 225 l26 36 -142 6
c-163 6 -227 21 -513 116 -256 85 -408 107 -545 77z"/>
<path d="M7401 2744 c0 -11 3 -14 6 -6 3 7 2 16 -1 19 -3 4 -6 -2 -5 -13z"/>
<path d="M2830 2722 c0 -20 -41 -62 -79 -82 -47 -24 -88 -31 -222 -40 -152 -9
-199 -24 -199 -64 0 -19 8 -24 53 -34 82 -18 284 -50 375 -60 l82 -8 0 153 c0
84 -2 153 -5 153 -3 0 -5 -8 -5 -18z"/>
<path d="M7400 2576 l0 -148 73 7 c159 15 381 56 424 78 l25 14 -24 28 c-27
31 -80 43 -201 44 -136 2 -255 44 -284 101 -11 21 -13 2 -13 -124z"/>
<path d="M2322 2123 l3 -318 140 -23 c446 -72 537 -87 710 -122 105 -21 307
-64 450 -95 652 -141 1071 -195 1520 -195 441 0 909 65 1690 235 252 55 616
125 755 145 152 21 230 35 293 51 l37 10 0 314 c0 173 -1 315 -3 315 -2 0 -44
-9 -94 -20 -50 -11 -216 -38 -369 -60 -326 -46 -470 -75 -842 -164 -632 -152
-951 -201 -1382 -209 -284 -6 -445 6 -805 59 -214 32 -326 55 -695 142 -406
96 -673 149 -870 171 -158 18 -378 50 -452 66 -40 8 -76 15 -81 15 -4 0 -6
-143 -5 -317z m338 58 c0 -5 -4 -11 -10 -13 -9 -3 -33 -68 -25 -68 2 0 20 10
40 21 25 15 34 26 30 39 -5 14 -1 17 22 13 55 -9 60 -14 28 -28 -16 -8 -40
-22 -52 -32 l-23 -18 30 -64 c17 -35 28 -66 26 -68 -15 -15 -48 15 -72 65
l-28 57 -10 -34 c-7 -23 -6 -39 2 -52 14 -22 11 -23 -41 -8 -32 9 -36 12 -24
22 14 11 44 138 39 165 -2 8 10 12 33 12 19 0 35 -4 35 -9z m5050 -28 c0 -21
-3 -24 -12 -15 -7 7 -21 12 -31 12 -15 0 -18 -5 -14 -22 3 -13 9 -44 12 -71 4
-28 14 -51 24 -56 21 -12 14 -18 -33 -27 -35 -6 -38 -5 -32 11 3 10 3 47 0 82
-7 68 -26 91 -49 60 -17 -23 -25 -21 -25 7 0 21 6 25 58 34 97 16 102 15 102
-15z m-4835 -81 c17 -39 33 -72 36 -72 11 0 19 105 9 108 -25 9 -7 21 23 15
41 -8 44 -11 25 -26 -10 -7 -21 -44 -28 -95 -8 -52 -17 -82 -24 -79 -6 1 -29
41 -52 87 l-41 85 -7 -57 c-4 -32 -4 -67 -1 -78 6 -19 4 -20 -22 -14 -41 10
-46 15 -30 27 20 16 41 110 34 152 -5 32 -4 33 21 26 22 -6 33 -21 57 -79z
m4643 66 c7 -7 12 -21 12 -32 -1 -20 -1 -20 -14 -3 -15 20 -56 23 -74 5 -7 -7
-12 -32 -12 -55 0 -81 65 -116 113 -61 l17 20 0 -21 c0 -23 -45 -51 -83 -51
-56 0 -104 76 -88 137 13 51 99 91 129 61z m-183 -100 c21 -40 45 -81 53 -90
13 -15 13 -18 1 -18 -8 0 -25 -3 -38 -7 -17 -4 -22 -3 -17 5 13 22 -11 50 -39
44 -33 -6 -44 -31 -22 -47 22 -16 11 -25 -31 -25 -27 0 -32 3 -23 13 6 8 20
55 32 105 13 57 26 92 34 92 7 0 29 -33 50 -72z m-4195 47 c45 -23 56 -85 26
-144 -28 -53 -82 -66 -137 -34 -38 22 -52 65 -39 114 19 69 85 98 150 64z
m4064 -28 c21 -32 10 -63 -30 -82 -30 -14 -33 -19 -28 -43 4 -15 11 -28 16
-30 19 -8 6 -20 -27 -24 -31 -3 -34 -2 -29 15 7 23 -15 145 -27 153 -28 17 1
30 73 33 29 1 41 -4 52 -22z m-3949 7 c17 -4 20 -14 21 -59 0 -87 22 -86 46 3
9 29 17 41 26 37 7 -3 17 -5 22 -5 4 0 6 -8 4 -17 -3 -10 -1 -43 4 -73 l8 -55
25 55 c23 50 24 56 10 68 -14 12 -11 13 18 8 40 -7 50 -14 35 -24 -6 -4 -30
-44 -55 -89 -24 -46 -48 -81 -54 -80 -5 2 -14 35 -20 73 l-10 69 -28 -58 c-16
-34 -33 -57 -40 -54 -6 2 -19 42 -27 90 -8 47 -18 89 -22 93 -21 20 -3 29 37
18z m3780 -25 c-10 -15 15 -138 31 -154 16 -15 12 -19 -29 -29 -24 -6 -28 -4
-23 11 3 10 -1 45 -8 78 -14 66 -13 68 -31 -52 -4 -24 -11 -43 -16 -43 -5 0
-25 25 -45 55 -20 30 -38 55 -39 55 -9 0 18 -97 32 -112 15 -17 14 -18 -22
-18 -27 0 -36 3 -29 10 14 14 -3 152 -19 162 -14 8 -9 13 20 22 19 6 27 0 52
-40 17 -26 32 -52 34 -58 8 -20 17 0 23 50 8 71 10 74 44 74 20 0 29 -4 25
-11z m-3456 -45 c3 -3 -2 -10 -11 -17 -9 -6 -21 -43 -28 -81 -11 -57 -10 -70
1 -77 20 -12 43 -11 57 3 9 9 12 7 12 -8 0 -12 -2 -23 -5 -26 -5 -5 -136 21
-145 29 -3 3 2 9 11 13 19 11 44 117 37 155 -5 24 -4 25 31 19 20 -4 38 -8 40
-10z m3215 1 c-8 -20 16 -155 27 -155 5 0 9 -4 9 -8 0 -12 -69 -32 -75 -22 -3
5 0 10 7 12 17 6 -8 142 -29 160 -14 11 -13 14 13 19 47 11 54 10 48 -6z
m-3062 -36 c62 -13 71 -19 62 -44 -6 -15 -9 -16 -18 -3 -6 8 -21 18 -32 22
-18 5 -23 2 -28 -19 -9 -35 1 -48 30 -41 24 6 29 0 18 -28 -5 -14 -8 -14 -30
1 -30 19 -31 18 -36 -27 -3 -32 -1 -35 26 -38 16 -2 33 1 39 7 25 25 36 7 14
-23 -12 -17 -18 -17 -73 -6 -54 12 -95 30 -67 30 7 0 19 34 28 75 14 60 15 78
5 90 -15 18 -8 19 62 4z m228 -52 c13 -7 31 -24 39 -39 14 -24 14 -32 1 -69
-8 -23 -27 -51 -42 -62 -25 -19 -33 -20 -89 -9 -66 12 -80 19 -62 30 7 4 19
40 28 81 14 62 15 75 4 83 -20 14 89 0 121 -15z m2480 -7 c11 -11 20 -25 20
-31 0 -22 -22 -49 -50 -64 -34 -18 -41 -58 -12 -74 19 -11 11 -15 -40 -24 -25
-4 -26 -2 -22 23 7 35 -13 142 -28 151 -17 11 -10 16 42 27 65 14 68 14 90 -8z
m-175 -30 c-9 -27 14 -160 26 -160 6 0 7 -4 4 -10 -3 -5 -22 -10 -42 -10 -29
0 -33 3 -24 14 16 18 -7 156 -26 156 -22 0 -14 18 10 23 51 10 59 8 52 -13z
m360 -10 c0 -18 -6 -26 -23 -28 -13 -2 -25 3 -28 12 -10 26 4 48 28 44 17 -2
23 -10 23 -28z m-2446 9 c25 -9 31 -16 31 -40 0 -16 -4 -29 -10 -29 -5 0 -10
5 -10 12 0 20 -32 48 -57 48 -28 0 -63 -51 -63 -91 0 -30 35 -79 56 -79 18 0
35 41 23 55 -17 18 -9 24 24 18 40 -7 44 -10 29 -25 -7 -7 -12 -25 -12 -40 0
-26 -3 -28 -40 -28 -47 0 -95 22 -110 49 -5 11 -10 38 -10 61 0 33 6 48 29 71
32 32 66 37 120 18z m1987 -81 c2 -63 6 -84 18 -94 15 -11 15 -12 0 -18 -8 -3
-25 -6 -37 -6 -20 0 -22 4 -18 46 3 45 2 47 -20 41 -13 -4 -32 -7 -42 -7 -16
0 -17 -5 -12 -32 4 -18 12 -36 18 -40 17 -10 4 -18 -39 -25 -34 -6 -37 -4 -26
9 10 12 10 31 1 92 -6 42 -15 76 -20 76 -5 0 -9 4 -9 9 0 5 15 11 34 13 33 4
33 3 32 -34 -1 -46 5 -52 43 -43 35 7 40 28 16 62 -17 24 -9 31 35 32 25 1 25
-1 26 -81z m-1783 45 c8 -5 10 -43 1 -43 -3 0 -12 7 -20 15 -23 22 -51 18 -58
-7 -10 -37 -7 -40 27 -36 31 3 33 2 29 -26 -4 -26 -6 -27 -17 -13 -14 20 -45
23 -45 5 0 -7 -3 -23 -6 -34 -8 -29 31 -39 65 -17 22 14 24 14 18 -2 -4 -9 -7
-21 -7 -27 0 -7 -21 -8 -62 -4 -67 8 -86 15 -71 25 13 8 34 148 26 168 -5 13
3 14 53 8 32 -4 62 -9 67 -12z m1560 -20 c7 -37 3 -39 -22 -14 -25 25 -34 26
-51 6 -16 -19 0 -40 38 -50 39 -10 62 -34 62 -66 0 -36 -32 -59 -82 -59 -28 0
-38 5 -43 21 -9 28 1 35 23 16 23 -21 46 -22 62 -2 16 19 8 28 -51 58 -36 18
-45 27 -47 54 -4 38 26 63 74 63 27 0 33 -4 37 -27z m-182 -13 c25 -14 26 -65
2 -79 -16 -9 -15 -13 12 -43 17 -18 33 -34 38 -36 16 -8 5 -22 -18 -22 -16 0
-34 13 -56 40 -18 22 -35 37 -39 35 -9 -6 -1 -56 12 -72 7 -8 -1 -14 -27 -19
-35 -6 -64 4 -37 13 12 5 11 40 -3 142 -1 8 -7 17 -13 19 -26 8 -10 21 31 25
23 2 50 4 60 5 10 1 27 -3 38 -8z m-986 -20 c19 -1 19 -1 3 -14 -14 -11 -18
-29 -18 -90 0 -74 1 -76 24 -76 14 0 32 7 41 16 20 20 29 13 20 -17 -7 -20
-11 -21 -73 -16 -35 4 -66 8 -68 10 -2 2 1 18 7 36 6 17 9 61 7 97 -4 62 -3
65 16 60 12 -3 30 -6 41 -6z m820 -11 c9 -27 -4 -39 -16 -16 -10 17 -54 24
-63 9 -3 -5 -2 -19 1 -31 5 -19 11 -22 33 -17 25 4 28 2 32 -24 4 -27 3 -28
-16 -14 -33 23 -46 17 -46 -21 0 -42 19 -54 58 -34 15 7 30 15 34 17 3 2 4 -6
1 -18 -6 -22 -22 -28 -93 -32 l-45 -3 0 81 c0 52 -5 87 -13 97 -11 13 -10 16
10 20 13 2 44 5 70 6 39 1 48 -2 53 -20z m-614 1 c35 0 39 -3 39 -25 0 -14 -4
-25 -10 -25 -5 0 -10 7 -10 15 0 10 -10 15 -30 15 -27 0 -30 -3 -30 -30 0 -22
5 -30 18 -30 10 0 23 5 30 12 9 9 12 5 12 -20 0 -18 -4 -32 -10 -32 -5 0 -10
4 -10 8 0 4 -11 9 -25 10 -22 2 -25 -2 -25 -33 0 -33 2 -35 33 -35 18 0 38 5
45 12 16 16 22 7 15 -21 -5 -21 -10 -22 -72 -20 -76 3 -86 6 -72 22 11 14 19
153 8 163 -16 17 -5 26 24 20 17 -3 49 -6 70 -6z m204 -83 c18 -48 39 -94 45
-102 11 -13 6 -15 -34 -15 -42 0 -62 13 -35 22 7 2 9 13 5 26 -10 31 -65 26
-77 -6 -5 -13 -4 -22 1 -22 6 0 10 -4 10 -10 0 -5 -13 -10 -30 -10 -29 0 -40
13 -21 24 4 3 16 27 26 53 31 84 57 134 67 131 6 -2 25 -43 43 -91z m220 68
c20 -19 25 -34 25 -74 0 -72 -26 -98 -106 -105 -66 -5 -80 -1 -63 21 14 16 2
163 -12 163 -6 0 -7 5 -4 10 3 6 35 10 71 10 56 0 68 -4 89 -25z m-830 -55 c0
-18 -6 -26 -23 -28 -13 -2 -25 3 -28 12 -10 26 4 48 28 44 17 -2 23 -10 23
-28z"/>
<path d="M7277 2044 c-4 -4 -7 -18 -7 -31 0 -16 6 -23 20 -23 23 0 24 6 7 38
-7 12 -16 19 -20 16z"/>
<path d="M3055 2060 c-27 -30 -31 -100 -7 -130 17 -21 23 -23 45 -13 41 19 62
117 31 147 -21 22 -47 20 -69 -4z"/>
<path d="M7124 2048 c2 -7 7 -26 11 -41 5 -24 8 -27 21 -16 23 19 14 63 -13
67 -15 2 -22 -1 -19 -10z"/>
<path d="M3887 1878 c-3 -13 -9 -46 -13 -74 -6 -48 -5 -52 17 -59 53 -17 95
98 51 138 -26 24 -49 21 -55 -5z"/>
<path d="M6366 1853 c8 -47 10 -49 29 -33 8 7 15 25 15 41 0 24 -4 29 -25 29
-24 0 -26 -2 -19 -37z"/>
<path d="M5690 1750 c0 -43 2 -45 31 -30 21 12 25 40 7 58 -24 24 -38 13 -38
-28z"/>
<path d="M5116 1692 c-9 -38 -7 -42 16 -33 14 5 15 10 4 36 l-13 30 -7 -33z"/>
<path d="M5304 1738 c3 -13 6 -49 6 -80 0 -57 0 -58 29 -58 35 0 57 42 48 96
-8 47 -23 64 -59 64 -27 0 -30 -3 -24 -22z"/>
<path d="M4585 1098 c-48 -27 -47 -69 1 -114 19 -19 41 -34 48 -34 7 0 21 -9
31 -20 15 -16 15 -22 5 -35 -20 -24 -68 -18 -96 12 l-26 28 4 -35 c3 -29 8
-35 37 -43 73 -18 131 14 131 74 0 30 -13 43 -78 79 -52 29 -59 41 -36 64 19
20 52 13 74 -16 18 -21 32 -15 23 10 -14 40 -74 55 -118 30z"/>
<path d="M5266 1089 c-35 -28 -33 -43 4 -24 23 12 35 13 50 5 37 -20 23 -72
-39 -142 -23 -25 -41 -51 -41 -57 0 -7 29 -11 80 -11 l80 0 0 30 c0 17 -4 30
-10 30 -5 0 -10 -4 -10 -10 0 -5 -21 -10 -46 -10 l-47 0 52 54 c65 70 70 115
14 145 -32 16 -57 14 -87 -10z"/>
<path d="M5497 1099 c-29 -17 -47 -65 -47 -125 0 -51 3 -59 35 -91 29 -29 40
-34 63 -28 40 10 61 35 71 88 21 116 -45 201 -122 156z m72 -50 c14 -40 14
-109 1 -144 -12 -32 -39 -30 -57 5 -15 30 -17 124 -3 151 17 30 46 24 59 -12z"/>
<path d="M5703 1098 c-22 -11 -38 -36 -28 -46 3 -3 14 3 25 13 17 15 24 16 45
7 16 -7 25 -20 25 -33 0 -24 -49 -106 -80 -134 -39 -35 -26 -45 60 -45 l80 0
0 38 c-1 30 -3 34 -11 20 -7 -13 -23 -18 -60 -18 l-49 0 41 37 c46 42 69 81
69 117 0 46 -64 70 -117 44z"/>
<path d="M5937 1039 c-73 -92 -74 -109 -7 -109 43 0 50 -3 50 -19 0 -11 -10
-27 -22 -35 -21 -15 -20 -16 35 -16 31 0 57 4 57 10 0 6 -4 10 -10 10 -5 0
-10 11 -10 25 0 16 6 25 15 25 8 0 15 7 15 16 0 10 -6 14 -15 10 -19 -7 -26
22 -23 94 4 79 -16 77 -85 -11z m43 -43 c0 -43 -1 -45 -30 -44 -17 1 -33 4
-35 8 -6 9 43 80 55 80 6 0 10 -20 10 -44z"/>
<path d="M4303 1088 c22 -18 29 -187 8 -212 -13 -16 -7 -17 80 -14 l94 3 3 30
c4 29 3 29 -15 12 -11 -9 -35 -17 -55 -17 -32 0 -37 3 -43 30 -4 16 -4 34 0
40 9 14 58 13 73 -2 9 -9 12 -4 12 25 0 35 -12 48 -25 27 -3 -5 -19 -10 -36
-10 -27 0 -29 2 -29 40 0 40 0 40 39 40 22 0 43 -5 47 -11 4 -8 9 -7 15 2 17
26 8 29 -88 29 -80 0 -94 -2 -80 -12z"/>
<path d="M4758 1070 c-5 -35 -4 -36 22 -10 11 11 31 20 45 20 25 0 25 0 25
-100 0 -84 -3 -101 -17 -109 -14 -8 -4 -10 41 -11 57 0 58 1 43 18 -13 15 -17
39 -17 110 0 91 0 92 24 92 14 0 32 -10 40 -22 19 -27 26 -22 19 15 l-5 27
-108 0 -108 0 -4 -30z"/>
<path d="M5014 895 c-8 -21 2 -45 19 -45 8 0 20 7 27 15 10 12 10 18 0 30 -7
8 -19 15 -27 15 -7 0 -16 -7 -19 -15z"/>
</g>
</svg>
